<svg id="visual" viewBox="0 0 900 450" width="900" height="450" xmlns="http://www.w3.org/2000/svg" xmlns:xlink="http://www.w3.org/1999/xlink" version="1.1"><path d="M0 70L12.5 66.2C25 62.3 50 54.7 75 51.3C100 48 125 49 150 47.8C175 46.7 200 43.3 225 46.8C250 50.3 275 60.7 300 63.7C325 66.7 350 62.3 375 67C400 71.7 425 85.3 450 88.3C475 91.3 500 83.7 525 78.5C550 73.3 575 70.7 600 72C625 73.3 650 78.7 675 76.3C700 74 725 64 750 68.5C775 73 800 92 825 97.5C850 103 875 95 887.5 91L900 87L900 0L887.5 0C875 0 850 0 825 0C800 0 775 0 750 0C725 0 700 0 675 0C650 0 625 0 600 0C575 0 550 0 525 0C500 0 475 0 450 0C425 0 400 0 375 0C350 0 325 0 300 0C275 0 250 0 225 0C200 0 175 0 150 0C125 0 100 0 75 0C50 0 25 0 12.5 0L0 0Z" fill="#6600ff"></path><path d="M0 84L12.5 77C25 70 50 56 75 57C100 58 125 74 150 77.8C175 81.7 200 73.3 225 72.7C250 72 275 79 300 73.2C325 67.3 350 48.7 375 41.5C400 34.3 425 38.7 450 46.3C475 54 500 65 525 74.3C550 83.7 575 91.3 600 92.5C625 93.7 650 88.3 675 77.8C700 67.3 725 51.7 750 53.3C775 55 800 74 825 82.7C850 91.3 875 89.7 887.5 88.8L900 88L900 0L887.5 0C875 0 850 0 825 0C800 0 775 0 750 0C725 0 700 0 675 0C650 0 625 0 600 0C575 0 550 0 525 0C500 0 475 0 450 0C425 0 400 0 375 0C350 0 325 0 300 0C275 0 250 0 225 0C200 0 175 0 150 0C125 0 100 0 75 0C50 0 25 0 12.5 0L0 0Z" fill="#542eff"></path><path d="M0 75L12.5 67.2C25 59.3 50 43.7 75 38.3C100 33 125 38 150 43.3C175 48.7 200 54.3 225 52.7C250 51 275 42 300 40.2C325 38.3 350 43.7 375 46.8C400 50 425 51 450 49.7C475 48.3 500 44.7 525 48.8C550 53 575 65 600 66.5C625 68 650 59 675 57.5C700 56 725 62 750 64.8C775 67.7 800 67.3 825 64C850 60.7 875 54.3 887.5 51.2L900 48L900 0L887.5 0C875 0 850 0 825 0C800 0 775 0 750 0C725 0 700 0 675 0C650 0 625 0 600 0C575 0 550 0 525 0C500 0 475 0 450 0C425 0 400 0 375 0C350 0 325 0 300 0C275 0 250 0 225 0C200 0 175 0 150 0C125 0 100 0 75 0C50 0 25 0 12.5 0L0 0Z" fill="#4141ff"></path><path d="M0 54L12.5 48.7C25 43.3 50 32.7 75 30.5C100 28.3 125 34.7 150 35.3C175 36 200 31 225 30.7C250 30.3 275 34.7 300 37.8C325 41 350 43 375 43.3C400 43.7 425 42.3 450 41.8C475 41.3 500 41.7 525 39.3C550 37 575 32 600 34C625 36 650 45 675 48.7C700 52.3 725 50.7 750 45.7C775 40.7 800 32.3 825 29.2C850 26 875 28 887.5 29L900 30L900 0L887.5 0C875 0 850 0 825 0C800 0 775 0 750 0C725 0 700 0 675 0C650 0 625 0 600 0C575 0 550 0 525 0C500 0 475 0 450 0C425 0 400 0 375 0C350 0 325 0 300 0C275 0 250 0 225 0C200 0 175 0 150 0C125 0 100 0 75 0C50 0 25 0 12.5 0L0 0Z" fill="#2f50ff"></path><path d="M0 38L12.5 37.5C25 37 50 36 75 31.5C100 27 125 19 150 17.8C175 16.7 200 22.3 225 24.3C250 26.3 275 24.7 300 27.3C325 30 350 37 375 37.3C400 37.7 425 31.3 450 28C475 24.7 500 24.3 525 27.2C550 30 575 36 600 40.2C625 44.3 650 46.7 675 43.5C700 40.3 725 31.7 750 28.2C775 24.7 800 26.3 825 29.5C850 32.7 875 37.3 887.5 39.7L900 42L900 0L887.5 0C875 0 850 0 825 0C800 0 775 0 750 0C725 0 700 0 675 0C650 0 625 0 600 0C575 0 550 0 525 0C500 0 475 0 450 0C425 0 400 0 375 0C350 0 325 0 300 0C275 0 250 0 225 0C200 0 175 0 150 0C125 0 100 0 75 0C50 0 25 0 12.5 0L0 0Z" fill="#1b5cff"></path><path d="M0 17L12.5 15.3C25 13.7 50 10.3 75 9.2C100 8 125 9 150 11.3C175 13.7 200 17.3 225 19.2C250 21 275 21 300 20C325 19 350 17 375 17C400 17 425 19 450 18.8C475 18.7 500 16.3 525 16.2C550 16 575 18 600 17.2C625 16.3 650 12.7 675 13C700 13.3 725 17.7 750 20.7C775 23.7 800 25.3 825 25.7C850 26 875 25 887.5 24.5L900 24L900 0L887.5 0C875 0 850 0 825 0C800 0 775 0 750 0C725 0 700 0 675 0C650 0 625 0 600 0C575 0 550 0 525 0C500 0 475 0 450 0C425 0 400 0 375 0C350 0 325 0 300 0C275 0 250 0 225 0C200 0 175 0 150 0C125 0 100 0 75 0C50 0 25 0 12.5 0L0 0Z" fill="#0066ff"></path></svg>