<svg xmlns="http://www.w3.org/2000/svg" data-name="Layer 1" viewBox="0 0 128 128"><path d="M66 14V2a2 2 0 1 0-4 0v12a2 2 0 1 0 4 0zm-10.819 2.76a2 2 0 0 0 1.971-2.353l-.705-3.94a2 2 0 1 0-3.938.705l.706 3.94a2 2 0 0 0 1.966 1.648zm-16.872-.538a2 2 0 0 0-3.451 2.023l2.03 3.466a2 2 0 0 0 3.452-2.023zM20.72 30.832l3.112 2.57a2 2 0 0 0 2.548-3.084l-3.112-2.57a2 2 0 0 0-2.548 3.083zm-3.754 14.185-3.819-1.37a2 2 0 0 0-1.35 3.766l3.818 1.37a2 2 0 0 0 1.35-3.766zM9.167 62a2 2 0 0 0 0 4h4.062a2 2 0 0 0 0-4zm6.45 17.218-3.82 1.369a2 2 0 1 0 1.351 3.766l3.819-1.37a2 2 0 0 0-1.35-3.765zM26.38 97.682a2 2 0 0 0-2.548-3.084l-3.112 2.57a2 2 0 0 0 2.548 3.085zm13.245 7.893a1.999 1.999 0 0 0-2.737.714l-2.031 3.466a2 2 0 0 0 3.45 2.023l2.032-3.466a2 2 0 0 0-.714-2.737zm13.589 7.313-.706 3.94a2 2 0 0 0 3.938.705l.705-3.94a2 2 0 1 0-3.937-.705zm19.249-1.617a2 2 0 0 0-1.616 2.322l.705 3.94a2 2 0 1 0 3.938-.705l-.706-3.94a2 2 0 0 0-2.321-1.617zm17.227.507a2 2 0 0 0 3.451-2.023l-2.03-3.466a2 2 0 0 0-3.452 2.023zm17.588-14.61-3.112-2.57a2 2 0 0 0-2.548 3.084l3.112 2.57a2 2 0 0 0 2.548-3.083zm2.547-16.742a2 2 0 0 0 1.207 2.557l3.819 1.37a2 2 0 0 0 1.35-3.766l-3.818-1.37a2.001 2.001 0 0 0-2.558 1.209zM118.834 66a2 2 0 1 0 0-4h-4.063a2 2 0 0 0 0 4zm-2.632-18.587a2 2 0 0 0-1.35-3.766l-3.819 1.37a2 2 0 1 0 1.35 3.765zm-11.47-19.666-3.113 2.571a2 2 0 0 0 2.548 3.084l3.112-2.57a2 2 0 0 0-2.548-3.085zm-16.358-5.322a2 2 0 0 0 2.737-.714l2.031-3.466a2 2 0 0 0-3.45-2.023l-2.032 3.465a2 2 0 0 0 .714 2.738zM72.82 16.76a2 2 0 0 0 1.966-1.648l.706-3.94a2 2 0 1 0-3.938-.705l-.705 3.94a2 2 0 0 0 1.97 2.353zm-26.184 2.257a2.002 2.002 0 0 0 1.876-2.695L44.344 5.046a2 2 0 0 0-3.752 1.387l4.167 11.276a2 2 0 0 0 1.876 1.308zm-21.58-3.809a2 2 0 1 0-3.045 2.594l7.833 9.193a2 2 0 1 0 3.044-2.594zM7.74 32.012a2 2 0 0 0 .75 2.726l10.552 6a2 2 0 1 0 1.978-3.476l-10.553-6a1.997 1.997 0 0 0-2.727.75zM.03 52.892a2 2 0 0 0 1.628 2.312l12 2.084a2.071 2.071 0 0 0 .345.03 2 2 0 0 0 .34-3.971l-12-2.084A2.008 2.008 0 0 0 .03 52.892zM15.97 72.34a2.006 2.006 0 0 0-2.313-1.63l-12 2.085a2 2 0 0 0 .34 3.97 2.071 2.071 0 0 0 .345-.029l12-2.084a2 2 0 0 0 1.628-2.312zm5.799 15.67a1.998 1.998 0 0 0-2.728-.75l-10.552 6a2 2 0 1 0 1.977 3.477l10.553-6a2 2 0 0 0 .75-2.726zm1.762 25.484a1.994 1.994 0 0 0 1.523-.703l7.832-9.193a2 2 0 1 0-3.044-2.594l-7.833 9.193a2 2 0 0 0 1.522 3.297zm18.243 10.642a1.997 1.997 0 0 0 2.569-1.183l4.167-11.276a2 2 0 1 0-3.752-1.387l-4.167 11.276a2 2 0 0 0 1.183 2.57zM62 114v12a2 2 0 1 0 4 0v-12a2 2 0 1 0-4 0zm18.671-4.892a2 2 0 0 0-1.182 2.57l4.167 11.276a2 2 0 1 0 3.752-1.387l-4.167-11.276a1.999 1.999 0 0 0-2.57-1.183zm17.486-8.103a2 2 0 0 0-3.044 2.594l7.832 9.193a2 2 0 0 0 3.045-2.594zm21.353-7.743-10.552-6a2 2 0 1 0-1.978 3.476l10.553 6a2 2 0 1 0 1.977-3.476zm6.832-20.466-12-2.084a2 2 0 0 0-.685 3.941l12 2.084a2.071 2.071 0 0 0 .345.03 2 2 0 0 0 .34-3.971zm-.685-21.533-12 2.084a2 2 0 0 0 .34 3.97 2.071 2.071 0 0 0 .345-.029l12-2.084a2 2 0 0 0-.685-3.941zm-5.397-19.251a1.999 1.999 0 0 0-2.727-.75l-10.553 6a2 2 0 1 0 1.978 3.476l10.552-6a2 2 0 0 0 .75-2.726zm-17.315-16.804-7.832 9.193a2 2 0 1 0 3.044 2.594l7.833-9.193a2 2 0 1 0-3.045-2.594zM86.225 3.863a2 2 0 0 0-2.569 1.183L79.49 16.322a2 2 0 1 0 3.752 1.387l4.167-11.276a2 2 0 0 0-1.183-2.57zM63.64 61a10.555 10.555 0 0 1-3.64-.651v3.727l4 4.8 4-4.8V60.35a10.555 10.555 0 0 1-3.64.651zm.72-24h-.72A6.755 6.755 0 0 0 57 44v6a6.755 6.755 0 0 0 6.64 7h.72A6.755 6.755 0 0 0 71 50v-6a6.755 6.755 0 0 0-6.64-7z" fill="#595bd4" class="color000000 svgShape"></path><path d="M64 23a41 41 0 1 0 41 41 41.046 41.046 0 0 0-41-41Zm23.319 64.975a2.002 2.002 0 0 1-2.294-1.656l-2.638-16.328a6.175 6.175 0 0 0-3.954-4.73L72 62.633V64.8a2 2 0 0 1-.463 1.28l-6 7.2a2 2 0 0 1-3.074 0l-6-7.2A2 2 0 0 1 56 64.8v-2.166l-6.433 2.627a6.167 6.167 0 0 0-3.95 4.705l-2.642 16.353a2 2 0 0 1-3.95-.638l2.639-16.328a10.116 10.116 0 0 1 6.39-7.795L56 58.313v-.594A11.161 11.161 0 0 1 53 50v-6a10.71 10.71 0 0 1 10.64-11h.72A10.71 10.71 0 0 1 75 44v6a11.161 11.161 0 0 1-3 7.719v.594l7.946 3.245a10.126 10.126 0 0 1 6.394 7.82l2.634 16.303a2 2 0 0 1-1.655 2.294Z" fill="#595bd4" class="color000000 svgShape"></path></svg>